<?xml version="1.0" encoding="UTF-8"?>
<svg xmlns="http://www.w3.org/2000/svg" width="1200" height="600" viewBox="0 0 1200 600" role="img" aria-labelledby="monoTitle">
  <title id="monoTitle">Joy Day Care Center logo — monochrome</title>
  <g fill="#0f1724" stroke="none" transform="translate(0,0)">
    <ellipse cx="600" cy="420" rx="420" ry="70" opacity="0.08" />

    <g transform="translate(380,240) scale(1)">
      <circle cx="-20" cy="-120" r="36" />
      <path d="M -84 -54 q 28 18 68 0 l -18 60 q -22 10 -32 -4 z" />
      <path d="M -20 -70 q 40 6 76 -14" stroke="#0f1724" stroke-width="14" stroke-linecap="round" fill="none" />
    </g>

    <g transform="translate(740,260) scale(1)">
      <circle cx="20" cy="-120" r="36" />
      <path d="M 36 -54 q -24 18 -68 0 l 18 60 q 22 10 32 -4 z" />
      <path d="M 60 -74 q -28 16 -58 8" stroke="#0f1724" stroke-width="14" stroke-linecap="round" fill="none" />
    </g>

    <g transform="translate(578,70)">
      <ellipse cx="0" cy="0" rx="34" ry="44" />
      <path d="M 0 44 q 10 24 0 48" stroke="#0f1724" stroke-width="3" fill="none" stroke-linecap="round"/>
      <path d="M 0 56 q -18 34 -120 120" stroke="#0f1724" stroke-width="3" fill="none" opacity="0.15" stroke-linecap="round"/>
    </g>

    <g transform="translate(600,500)">
      <text text-anchor="middle" font-family="Poppins, 'Nunito', Arial, sans-serif" font-weight="700" font-size="64">JOY DAY</text>
      <text text-anchor="middle" y="40" font-family="Poppins, 'Nunito', Arial, sans-serif" font-weight="600" font-size="28" letter-spacing="8">CARE CENTER</text>
    </g>
  </g>
</svg>